<svg width="39" height="40" viewBox="0 0 39 40" fill="none" xmlns="http://www.w3.org/2000/svg">
<path d="M21.125 26.5H23.5625C24.0112 26.5 24.375 26.8638 24.375 27.3125C24.375 27.7612 24.0112 28.125 23.5625 28.125H17.0625C16.6138 28.125 16.25 27.7612 16.25 27.3125C16.25 26.8638 16.6138 26.5 17.0625 26.5H19.5V18.375H17.0625C16.6138 18.375 16.25 18.0112 16.25 17.5625C16.25 17.1138 16.6138 16.75 17.0625 16.75H20.3125C20.7612 16.75 21.125 17.1138 21.125 17.5625V26.5ZM19.5 36.25C10.5254 36.25 3.25 28.9746 3.25 20C3.25 11.0254 10.5254 3.75 19.5 3.75C28.4746 3.75 35.75 11.0254 35.75 20C35.75 28.9746 28.4746 36.25 19.5 36.25ZM19.5 34.625C27.5772 34.625 34.125 28.0772 34.125 20C34.125 11.9228 27.5772 5.375 19.5 5.375C11.4228 5.375 4.875 11.9228 4.875 20C4.875 28.0772 11.4228 34.625 19.5 34.625ZM18.6875 11.875H20.3125C20.7612 11.875 21.125 12.2388 21.125 12.6875V14.3125C21.125 14.7612 20.7612 15.125 20.3125 15.125H18.6875C18.2388 15.125 17.875 14.7612 17.875 14.3125V12.6875C17.875 12.2388 18.2388 11.875 18.6875 11.875Z" fill="#3C2C26"/>
</svg>
